<svg width="512" height="512" viewBox="950 190 900 970" xmlns="http://www.w3.org/2000/svg">
  <polygon points="1387,211 1012,755 1182,989 1311,989 1139,753 1388,391" fill="#161717"/>
  <polygon points="1414,503 1259,788 1368,727 1368,1071 1034,1074 1067,1127 1460,1127 1459,728 1567,784" fill="#161717"/>

  <polygon points="1440,214 1438,389 1689,753 1518,986 1641,989 1814,752 1654,522 1652,430 1588,427" fill="#1E9C77"/>
  <polygon points="1462,1125 1763,1126 1819,1035 1465,1033" fill="#1E9C77"/>
  <polygon points="1010,1032 1033,1071 1366,1068 1364,1032" fill="#1E9C77"/>
</svg>
